<?xml version="1.0" encoding="UTF-8"?>
<!DOCTYPE svg PUBLIC "-//W3C//DTD SVG 1.1//EN" "http://www.w3.org/Graphics/SVG/1.1/DTD/svg11.dtd">
<!-- Creator: CorelDRAW (Evaluation Version) -->
<svg xmlns="http://www.w3.org/2000/svg" xml:space="preserve" width="3.99999in" height="1.16666in" version="1.1" style="shape-rendering:geometricPrecision; text-rendering:geometricPrecision; image-rendering:optimizeQuality; fill-rule:evenodd; clip-rule:evenodd"
viewBox="0 0 3999.99 1166.66"
 xmlns:xlink="http://www.w3.org/1999/xlink"
 xmlns:xodm="http://www.corel.com/coreldraw/odm/2003">
 <defs>
  <style type="text/css">
   <![CDATA[
    .fil0 {fill:#373435}
    .fil1 {fill:#00AFEF}
    .fil2 {fill:#373435;fill-rule:nonzero}
    .fil3 {fill:#00AFEF;fill-rule:nonzero}
   ]]>
  </style>
 </defs>
 <g id="Layer_x0020_1">
  <metadata id="CorelCorpID_0Corel-Layer"/>
  <path class="fil0" d="M2653.3 2022.1c163.68,19.64 290.56,158.96 290.56,327.93 0,46.47 -9.61,90.69 -26.93,130.8 -15.32,-10.04 -30.15,-20.48 -44.47,-31.28 11.88,-30.89 18.41,-64.44 18.41,-99.51 0,-137.97 -100.76,-252.39 -232.7,-273.73 -2.2,-17.82 -3.83,-35.89 -4.87,-54.19zm224.36 526.32c-60.27,80.11 -156.14,131.92 -264.11,131.92 -108.45,0 -204.7,-52.27 -264.92,-132.99 16.35,-8.25 32.82,-15.87 49.34,-22.88 50.84,62.76 128.52,102.88 215.57,102.88 86.57,0 163.87,-39.68 214.72,-101.82 16.54,7 33.02,14.63 49.39,22.89zm-568.04 -68.82c-16.98,-39.78 -26.39,-83.58 -26.39,-129.57 0,-169.43 127.57,-309.04 291.89,-328.07 -1.03,18.27 -2.66,36.32 -4.85,54.12 -132.6,20.78 -234.04,135.52 -234.04,273.95 0,34.59 6.35,67.7 17.93,98.24 -14.34,10.82 -29.19,21.28 -44.52,31.33z"/>
  <path class="fil1" d="M2668.32 2447.81l0 0c44.24,9.38 89.04,24.56 132.93,45.73 -42.78,57.54 -110.93,94.76 -187.7,94.76 -77.13,0 -145.56,-37.57 -188.29,-95.57 43.94,-21.2 88.79,-36.41 133.09,-45.78 16.33,9.65 35.39,15.19 55.73,15.19 19.74,0 38.25,-5.21 54.25,-14.33zm143.48 50.95c8.8,4.46 17.56,9.15 26.26,14.09 5.57,-7.7 10.8,-15.75 15.65,-24.16 4.69,-8.11 8.91,-16.37 12.69,-24.72 -8.84,-5.19 -17.49,-10.56 -25.94,-16.09 12.33,-29.58 19.15,-62.07 19.15,-96.17 0,-126.96 -94.45,-231.65 -216.31,-246.47 -0.59,-10.26 -0.93,-20.62 -1,-31.06 -9.45,-0.97 -19.04,-1.47 -28.75,-1.47 -9.37,0 -18.63,0.46 -27.76,1.37 -0.07,10.43 -0.41,20.78 -1,31.04 -122.35,14.37 -217.31,119.28 -217.31,246.58 0,33.74 6.69,65.91 18.77,95.24 -8.46,5.54 -17.12,10.92 -25.97,16.12 3.88,8.67 8.25,17.22 13.1,25.63 4.69,8.11 9.72,15.9 15.07,23.35 8.7,-4.94 17.46,-9.64 26.26,-14.09 44.75,61.84 117.14,102.03 198.84,102.03 81.35,0 153.46,-39.83 198.26,-101.22zm18.82 -57.46c-53.58,-36.57 -98.77,-79.84 -134.21,-126.6l-0 -0.01c-1.41,-3.29 -3.02,-6.53 -4.85,-9.7 -1.13,-1.96 -2.33,-3.86 -3.58,-5.7l-0.01 -0.03c-23.49,-54.7 -38.85,-116.4 -43.89,-182.16 115.08,15.1 203.95,114.38 203.95,234.61 0,31.71 -6.2,61.96 -17.41,89.59zm-246.63 -324.33c-4.93,64.47 -19.77,125.04 -42.48,178.94 -2.15,2.87 -4.15,5.9 -5.99,9.08 -1.13,1.96 -2.18,3.94 -3.14,5.94l-0.02 0.03c-35.73,47.83 -81.64,92.09 -136.28,129.4 -10.98,-27.38 -17.04,-57.31 -17.04,-88.66 0,-120.58 89.39,-220.08 204.95,-234.74z"/>
  <path class="fil2" d="M958.89 2416.81l0 -90.76 217.26 0c31.26,0 56.15,-10.69 74.97,-32.22 18.98,-21.54 28.39,-49.61 28.39,-84.55l0 0c0,-35.57 -9.41,-63.96 -28.39,-85.5 -18.82,-21.54 -43.71,-32.22 -74.97,-32.22l-217.26 0 0 -90.77 214.07 0c41.16,0 76.89,8.61 107.52,26 30.47,17.23 54.24,41.48 71.15,72.58 17.07,31.26 25.52,67.8 25.52,109.91l0 0c0,41.8 -8.45,78.17 -25.52,109.27 -16.91,31.26 -40.68,55.35 -71.15,72.58 -30.63,17.07 -66.36,25.68 -107.52,25.68l-214.07 0zm-49.13 263.52l0 -679.54 95.39 0 0 679.54 -95.39 0z"/>
  <polygon id="_1" class="fil2" points="1591.69,2000.8 1591.69,2680.34 1496.3,2680.34 1496.3,2000.8 "/>
  <path id="_2" class="fil2" d="M1759.83 2680.34l0 -679.54 95.39 0 0 679.54 -95.39 0zm47.69 0l0 -90.61 388.91 0 0 90.61 -388.91 0z"/>
  <path id="_3" class="fil2" d="M3178.09 2680.34l0 -623.87 95.23 0 0 623.87 -95.23 0zm-192.22 -588.78l0 -90.77 479.51 0 0 90.77 -479.51 0z"/>
  <path id="_4" class="fil2" d="M3853.32 2680.34l0 -88.37 184.08 0c50.57,0 86.3,-9.57 107.35,-28.87 20.9,-19.3 31.43,-44.83 31.43,-76.25l0 -1.43c0,-33.66 -8.93,-60.46 -26.8,-80.56 -17.87,-20.1 -47.38,-30.15 -88.53,-30.15l-207.53 0 0 -85.98 207.53 0c35.09,0 61.73,-8.3 79.6,-25.04 18.02,-16.59 26.96,-41 26.96,-73.06l0 0c0,-33.98 -10.05,-59.34 -29.99,-76.25 -19.94,-16.75 -49.77,-25.2 -89.65,-25.2l-194.45 0 0 -88.37 211.68 0c67,0 116.77,16.75 149.63,50.09 32.7,33.34 48.97,78 48.97,134.15l0 0c0,33.81 -9.89,64.92 -29.83,93.16 -19.94,28.23 -51.37,46.26 -93.96,53.92 41.95,6.22 74.65,24.88 97.94,55.67 23.13,30.79 34.77,66.2 34.77,106.08l0 1.44c0,55.35 -17.87,100.18 -53.76,134.15 -35.89,33.98 -84.39,50.89 -145.8,50.89l-219.65 0zm-56.15 0l0 -679.54 94.91 0 0 679.54 -94.91 0z"/>
  <path id="_5" class="fil2" d="M4335.54 2680.34l250.6 -679.54 81.2 0 250.6 679.54 -102.89 0 -188.39 -548.26 -188.23 548.26 -102.89 0zm115.49 -149.15l0 -90.61 357.48 0 0 90.61 -357.48 0z"/>
  <polygon id="_6" class="fil2" points="5020.67,2679.86 5020.67,2000.8 5107.13,2000.8 5439.4,2526.09 5428.23,2538.21 5428.23,2000.8 5522.67,2000.8 5522.67,2679.86 5435.25,2679.86 5103.94,2162.55 5115.1,2150.42 5115.1,2679.86 "/>
  <path id="_7" class="fil2" d="M5755.4 2680.34l0 -90.61 153.78 0c50.09,0 89.01,-13.08 116.45,-39.08 27.59,-26 41.47,-62.69 41.47,-110.07l0 -200.03c0,-47.38 -13.88,-84.07 -41.47,-110.07 -27.44,-26 -66.36,-38.92 -116.45,-38.92l-153.78 0 0 -90.77 150.91 0c82.31,0 145.8,21.37 190.94,63.81 44.98,42.59 67.48,102.41 67.48,179.78l0 192.54c0,51.36 -10.05,95.23 -30.31,131.44 -20.26,36.37 -49.77,64.13 -88.37,83.27 -38.6,19.14 -85.34,28.71 -140.22,28.71l-150.43 0zm-64.6 0l0 -679.54 95.39 0 0 679.54 -95.39 0z"/>
  <path id="_8" class="fil2" d="M6529.22 2687.36c-75.77,0 -134.31,-22.02 -175.95,-66.2 -41.63,-44.03 -62.37,-106.24 -62.37,-186.63l0 -433.73 95.23 0 0 436.92c0,49.61 12.6,87.89 37.49,115.01 24.89,27.12 60.14,40.68 105.6,40.68 45.78,0 81.19,-13.56 106.24,-40.68 25.2,-27.12 37.65,-65.4 37.65,-115.01l0 -436.92 95.39 0 0 433.73c0,80.4 -20.9,142.61 -62.69,186.63 -41.63,44.19 -100.65,66.2 -176.58,66.2z"/>
  <polygon id="_9" class="fil2" points="6917.96,2679.86 6917.96,2000.8 7004.42,2000.8 7336.7,2526.09 7325.53,2538.21 7325.53,2000.8 7419.96,2000.8 7419.96,2679.86 7332.55,2679.86 7001.23,2162.55 7012.4,2150.42 7012.4,2679.86 "/>
  <path id="_10" class="fil2" d="M7817.16 2314.41l235.44 0 0 118.68c0,51.2 -9.89,95.71 -29.67,134 -19.78,38.12 -47.38,67.63 -82.95,88.69 -35.41,21.06 -77.21,31.59 -125.22,31.59 -48.17,0 -90.45,-9.89 -126.66,-29.67 -36.05,-19.78 -64.13,-47.7 -84.07,-83.75 -19.94,-35.89 -29.99,-77.85 -29.99,-125.86l0 -200.52c0,-51.04 9.89,-95.55 29.67,-133.67 19.94,-37.96 47.54,-67.48 83.11,-88.53 35.41,-21.06 77.2,-31.59 125.22,-31.59 39.56,0 75.61,8.46 108.15,25.2 32.54,16.91 59.82,40.36 81.99,70.67 22.17,30.15 37.01,65.56 44.82,106.08l0 0 -103.21 0 0 0c-8.77,-35.25 -25.68,-62.21 -50.89,-80.87 -25.36,-18.66 -52.32,-28.07 -80.87,-28.07 -42.43,0 -76.41,14.83 -101.93,44.19 -25.52,29.51 -38.28,68.28 -38.28,116.61l0 200.52c0,44.19 13.08,79.6 39.24,106.24 26.16,26.64 60.78,40.04 103.69,40.04 42.43,0 76.41,-14.04 101.93,-42.11 25.52,-28.07 38.29,-67.16 38.29,-117.25l0 -29.51 -137.82 0 0 -91.09z"/>
  <path class="fil2" d="M1107.78 3385.28c-14.58,0 -27.99,-2.98 -40.37,-8.94 -12.31,-5.96 -22.35,-14.26 -30.07,-25.01l31.69 -22.81c3.56,6.22 8.68,11.02 15.35,14.45 6.74,3.37 14.52,5.12 23.39,5.12 15.04,0 26.7,-4.73 34.99,-14.06 8.3,-9.39 12.44,-22.55 12.44,-39.46l0 -188.18 38.75 0 0 188.31c0,28.77 -7.52,51.06 -22.48,66.87 -15.03,15.81 -36.22,23.72 -63.7,23.72z"/>
  <path id="_1_0" class="fil2" d="M1273.16 3382.43l101.8 -276.04 32.98 0 101.8 276.04 -41.8 0 -76.53 -222.71 -76.46 222.71 -41.8 0zm46.91 -60.59l0 -36.81 145.21 0 0 36.81 -145.21 0z"/>
  <path id="_2_1" class="fil2" d="M1666.18 3385.28c-13.41,0 -26.05,-1.3 -37.91,-3.82 -11.79,-2.53 -22.87,-6.28 -33.24,-11.34 -10.3,-5.12 -19.96,-11.41 -28.9,-18.99l0 0 24.11 -29.61 0 0c10.5,9.07 22.09,15.94 34.73,20.48 12.63,4.54 26.37,6.8 41.21,6.8 19.96,0 35.44,-3.69 46.46,-11.15 11.02,-7.52 16.52,-17.95 16.52,-31.36l0 -0.2c0,-10.5 -2.79,-18.53 -8.36,-24.1 -5.57,-5.57 -12.83,-9.72 -21.9,-12.44 -9.07,-2.72 -18.92,-4.93 -29.74,-6.74 -10.37,-1.75 -20.8,-3.82 -31.36,-6.22 -10.56,-2.4 -20.28,-6.22 -29.16,-11.34 -8.88,-5.12 -16,-12.51 -21.38,-22.1 -5.38,-9.59 -8.04,-22.48 -8.04,-38.56l0 -0.19c0,-25.66 8.55,-45.56 25.59,-59.68 17.11,-14.13 41.21,-21.19 72.38,-21.19 14.77,0 29.29,2.4 43.41,7.13 14.19,4.73 27.99,11.99 41.41,21.77l0 0 -22.03 30.71 0 0c-10.5,-7.84 -20.93,-13.67 -31.43,-17.43 -10.43,-3.82 -20.87,-5.7 -31.36,-5.7 -18.86,0 -33.57,3.76 -44,11.27 -10.43,7.52 -15.62,18.21 -15.62,32.01l0 0.19c0,10.37 2.98,18.28 9.07,23.72 6.09,5.44 14.06,9.46 23.85,12.06 9.78,2.59 20.35,5.05 31.62,7.32 10.11,2.01 20.22,4.47 30.33,7.32 10.17,2.79 19.37,6.93 27.67,12.31 8.3,5.38 14.91,12.76 19.89,22.09 4.99,9.4 7.52,21.58 7.52,36.68l0 0.39c0,25.4 -8.88,45.1 -26.57,59.03 -17.76,13.93 -42.64,20.87 -74.78,20.87z"/>
  <path id="_3_2" class="fil2" d="M1842.9 3382.43l101.8 -276.04 32.98 0 101.8 276.04 -41.8 0 -76.53 -222.71 -76.46 222.71 -41.8 0zm46.91 -60.59l0 -36.81 145.21 0 0 36.81 -145.21 0z"/>
  <path id="_4_3" class="fil2" d="M2402.46 3385.28c-13.41,0 -26.05,-1.3 -37.91,-3.82 -11.79,-2.53 -22.87,-6.28 -33.24,-11.34 -10.3,-5.12 -19.96,-11.41 -28.9,-18.99l0 0 24.11 -29.61 0 0c10.5,9.07 22.09,15.94 34.73,20.48 12.63,4.54 26.37,6.8 41.21,6.8 19.96,0 35.44,-3.69 46.46,-11.15 11.02,-7.52 16.52,-17.95 16.52,-31.36l0 -0.2c0,-10.5 -2.79,-18.53 -8.36,-24.1 -5.57,-5.57 -12.83,-9.72 -21.9,-12.44 -9.07,-2.72 -18.92,-4.93 -29.74,-6.74 -10.37,-1.75 -20.8,-3.82 -31.36,-6.22 -10.56,-2.4 -20.28,-6.22 -29.16,-11.34 -8.88,-5.12 -16,-12.51 -21.38,-22.1 -5.38,-9.59 -8.04,-22.48 -8.04,-38.56l0 -0.19c0,-25.66 8.55,-45.56 25.59,-59.68 17.11,-14.13 41.21,-21.19 72.38,-21.19 14.77,0 29.29,2.4 43.41,7.13 14.19,4.73 27.99,11.99 41.41,21.77l0 0 -22.03 30.71 0 0c-10.5,-7.84 -20.93,-13.67 -31.43,-17.43 -10.43,-3.82 -20.87,-5.7 -31.36,-5.7 -18.86,0 -33.57,3.76 -44,11.27 -10.43,7.52 -15.62,18.21 -15.62,32.01l0 0.19c0,10.37 2.98,18.28 9.07,23.72 6.09,5.44 14.06,9.46 23.85,12.06 9.78,2.59 20.35,5.05 31.62,7.32 10.11,2.01 20.22,4.47 30.33,7.32 10.17,2.79 19.37,6.93 27.67,12.31 8.3,5.38 14.91,12.76 19.89,22.09 4.99,9.4 7.52,21.58 7.52,36.68l0 0.39c0,25.4 -8.88,45.1 -26.57,59.03 -17.76,13.93 -42.64,20.87 -74.78,20.87z"/>
  <path id="_5_4" class="fil2" d="M2691.22 3385.28c-30.78,0 -54.56,-8.94 -71.47,-26.89 -16.91,-17.89 -25.34,-43.16 -25.34,-75.81l0 -176.19 38.69 0 0 177.48c0,20.15 5.12,35.7 15.23,46.72 10.11,11.02 24.43,16.52 42.9,16.52 18.59,0 32.98,-5.51 43.15,-16.52 10.24,-11.02 15.3,-26.57 15.3,-46.72l0 -177.48 38.75 0 0 176.19c0,32.66 -8.49,57.93 -25.46,75.81 -16.91,17.95 -40.89,26.89 -71.73,26.89z"/>
  <path id="_6_5" class="fil2" d="M2916.02 3275.38l0 -36.87 88.26 0c12.7,0 22.81,-4.34 30.46,-13.09 7.71,-8.75 11.53,-20.15 11.53,-34.34l0 0c0,-14.45 -3.82,-25.98 -11.53,-34.73 -7.65,-8.75 -17.76,-13.09 -30.46,-13.09l-88.26 0 0 -36.87 86.96 0c16.72,0 31.23,3.5 43.67,10.56 12.38,7 22.03,16.85 28.9,29.48 6.93,12.7 10.37,27.54 10.37,44.65l0 0c0,16.98 -3.43,31.75 -10.37,44.39 -6.87,12.7 -16.52,22.49 -28.9,29.48 -12.44,6.93 -26.96,10.43 -43.67,10.43l-86.96 0zm-19.96 107.05l0 -276.04 38.75 0 0 276.04 -38.75 0z"/>
  <polygon id="_7_6" class="fil2" points="3220,3106.39 3220,3382.43 3181.26,3382.43 3181.26,3106.39 "/>
  <path id="_8_7" class="fil2" d="M3352.15 3265.66l0 -36.8 94.15 0c11.28,0 20.35,-3.95 27.15,-11.8 6.87,-7.84 10.24,-18.21 10.24,-31.1l0 0c0,-12.89 -3.37,-23.33 -10.24,-31.17 -6.8,-7.84 -15.87,-11.73 -27.15,-11.73l-94.15 0 0 -36.87 92.66 0c16.07,0 30.13,3.37 42.12,9.98 12.05,6.67 21.38,15.94 27.99,27.8 6.67,11.93 9.98,25.92 9.98,41.99l0 0c0,15.94 -3.37,29.87 -10.04,41.86 -6.74,11.93 -16.07,21.26 -28,27.87 -11.98,6.67 -25.98,9.98 -42.05,9.98l-92.66 0zm-16.91 116.77l0 -276.24 38.75 0 0 276.24 -38.75 0zm155.32 0l-63.24 -125.32 38.56 -8.69 70.63 134 -45.94 0z"/>
  <path id="_9_8" class="fil2" d="M4199.15 3265.66l0 -36.8 94.15 0c11.28,0 20.35,-3.95 27.15,-11.8 6.87,-7.84 10.24,-18.21 10.24,-31.1l0 0c0,-12.89 -3.37,-23.33 -10.24,-31.17 -6.8,-7.84 -15.87,-11.73 -27.15,-11.73l-94.15 0 0 -36.87 92.66 0c16.07,0 30.13,3.37 42.12,9.98 12.05,6.67 21.38,15.94 27.99,27.8 6.67,11.93 9.98,25.92 9.98,41.99l0 0c0,15.94 -3.37,29.87 -10.04,41.86 -6.74,11.93 -16.07,21.26 -28,27.87 -11.98,6.67 -25.98,9.98 -42.05,9.98l-92.66 0zm-16.91 116.77l0 -276.24 38.75 0 0 276.24 -38.75 0zm155.32 0l-63.24 -125.32 38.56 -8.69 70.63 134 -45.94 0z"/>
  <path id="_10_9" class="fil2" d="M4470.86 3382.43l0 -276.04 38.75 0 0 276.04 -38.75 0zm18.79 0l0 -36.81 158.56 0 0 36.81 -158.56 0zm0 -118.65l0 -36.81 137.63 0 0 36.81 -137.63 0zm0 -120.53l0 -36.87 158.56 0 0 36.87 -158.56 0z"/>
  <polygon id="_11" class="fil2" points="4738.42,3382.24 4738.42,3106.39 4773.54,3106.39 4908.52,3319.77 4903.98,3324.69 4903.98,3106.39 4942.34,3106.39 4942.34,3382.24 4906.83,3382.24 4772.24,3172.09 4776.78,3167.17 4776.78,3382.24 "/>
  <path id="_12" class="fil2" d="M5101.17 3382.43l0 -253.43 38.69 0 0 253.43 -38.69 0zm-78.08 -239.17l0 -36.87 194.78 0 0 36.87 -194.78 0z"/>
  <path id="_13" class="fil2" d="M5247.37 3382.43l101.8 -276.04 32.98 0 101.8 276.04 -41.8 0 -76.53 -222.71 -76.46 222.71 -41.8 0zm46.91 -60.59l0 -36.81 145.21 0 0 36.81 -145.21 0z"/>
  <path id="_14" class="fil2" d="M5560.88 3382.43l0 -276.04 38.75 0 0 276.04 -38.75 0zm19.37 0l0 -36.81 157.98 0 0 36.81 -157.98 0z"/>
  <path id="_15" class="fil2" d="M5950.92 3236.83l154.16 0 0 36.81 -154.16 0 0 -36.81zm96.42 -58.64l0 154.15 -38.69 0 0 -154.15 38.69 0z"/>
  <path id="_16" class="fil2" d="M6364.94 3382.43l0 -36.81 62.46 0c20.35,0 36.16,-5.31 47.3,-15.87 11.21,-10.56 16.85,-25.46 16.85,-44.71l0 -81.26c0,-19.24 -5.64,-34.15 -16.85,-44.71 -11.15,-10.56 -26.96,-15.81 -47.3,-15.81l-62.46 0 0 -36.87 61.3 0c33.43,0 59.22,8.69 77.56,25.92 18.27,17.3 27.41,41.6 27.41,73.03l0 78.21c0,20.87 -4.08,38.69 -12.31,53.39 -8.23,14.78 -20.22,26.05 -35.9,33.82 -15.68,7.78 -34.67,11.67 -56.96,11.67l-61.1 0zm-26.24 0l0 -276.04 38.75 0 0 276.04 -38.75 0z"/>
  <path id="_17" class="fil2" d="M6642.17 3265.66l0 -36.8 94.15 0c11.28,0 20.35,-3.95 27.15,-11.8 6.87,-7.84 10.24,-18.21 10.24,-31.1l0 0c0,-12.89 -3.37,-23.33 -10.24,-31.17 -6.8,-7.84 -15.87,-11.73 -27.15,-11.73l-94.15 0 0 -36.87 92.66 0c16.07,0 30.13,3.37 42.12,9.98 12.05,6.67 21.38,15.94 27.99,27.8 6.67,11.93 9.98,25.92 9.98,41.99l0 0c0,15.94 -3.37,29.87 -10.04,41.86 -6.74,11.93 -16.07,21.26 -28,27.87 -11.98,6.67 -25.98,9.98 -42.05,9.98l-92.66 0zm-16.91 116.77l0 -276.24 38.75 0 0 276.24 -38.75 0zm155.32 0l-63.24 -125.32 38.56 -8.69 70.63 134 -45.94 0z"/>
  <polygon id="_18" class="fil2" points="6952.62,3106.39 6952.62,3382.43 6913.87,3382.43 6913.87,3106.39 "/>
  <polygon id="_19" class="fil2" points="7125.32,3382.43 7035.31,3106.39 7077.44,3106.39 7143.72,3322.81 7209.95,3106.39 7252.13,3106.39 7162.13,3382.43 "/>
  <path id="_20" class="fil2" d="M7329.06 3382.43l0 -276.04 38.75 0 0 276.04 -38.75 0zm18.79 0l0 -36.81 158.56 0 0 36.81 -158.56 0zm0 -118.65l0 -36.81 137.63 0 0 36.81 -137.63 0zm0 -120.53l0 -36.87 158.56 0 0 36.87 -158.56 0z"/>
  <path id="_21" class="fil2" d="M7613.54 3265.66l0 -36.8 94.15 0c11.28,0 20.35,-3.95 27.15,-11.8 6.87,-7.84 10.24,-18.21 10.24,-31.1l0 0c0,-12.89 -3.37,-23.33 -10.24,-31.17 -6.8,-7.84 -15.87,-11.73 -27.15,-11.73l-94.15 0 0 -36.87 92.66 0c16.07,0 30.13,3.37 42.12,9.98 12.05,6.67 21.38,15.94 27.99,27.8 6.67,11.93 9.98,25.92 9.98,41.99l0 0c0,15.94 -3.37,29.87 -10.04,41.86 -6.74,11.93 -16.07,21.26 -28,27.87 -11.98,6.67 -25.98,9.98 -42.05,9.98l-92.66 0zm-16.91 116.77l0 -276.24 38.75 0 0 276.24 -38.75 0zm155.32 0l-63.24 -125.32 38.56 -8.69 70.63 134 -45.94 0z"/>
  <polygon id="_22" class="fil3" points="3848.73,3425.98 3848.73,2970.82 3900.4,2970.82 3900.4,3425.98 "/>
  <rect class="fil1" x="869.55" y="2806.61" width="7258.69" height="80.42"/>
  <path class="fil0" d="M596.2 141.94c217.44,26.09 386,211.16 386,435.63 0,61.73 -12.77,120.47 -35.78,173.75 -20.35,-13.33 -40.05,-27.2 -59.08,-41.56 15.79,-41.03 24.46,-85.6 24.46,-132.2 0,-183.28 -133.85,-335.28 -309.13,-363.64 -2.93,-23.67 -5.09,-47.69 -6.47,-71.99zm298.05 699.18c-80.07,106.43 -207.42,175.26 -350.86,175.26 -144.08,0 -271.93,-69.44 -351.93,-176.67 21.73,-10.96 43.6,-21.09 65.55,-30.39 67.54,83.37 170.73,136.67 286.38,136.67 115,0 217.69,-52.7 285.25,-135.26 21.97,9.31 43.86,19.44 65.61,30.41zm-754.6 -91.43c-22.56,-52.85 -35.06,-111.03 -35.06,-172.13 0,-225.07 169.47,-410.54 387.76,-435.83 -1.37,24.28 -3.53,48.26 -6.45,71.9 -176.15,27.61 -310.91,180.03 -310.91,363.93 0,45.96 8.44,89.94 23.81,130.51 -19.05,14.38 -38.78,28.27 -59.15,41.62z"/>
  <path class="fil1" d="M616.15 707.47l0 0c58.78,12.46 118.28,32.63 176.59,60.76 -56.83,76.43 -147.36,125.89 -249.35,125.89 -102.46,0 -193.37,-49.92 -250.14,-126.96 58.37,-28.17 117.96,-48.36 176.8,-60.82 21.7,12.82 47.01,20.18 74.04,20.18 26.21,0 50.81,-6.92 72.06,-19.04zm190.61 67.69c11.69,5.92 23.33,12.15 34.89,18.72 7.4,-10.22 14.34,-20.93 20.79,-32.09 6.22,-10.78 11.84,-21.74 16.86,-32.84 -11.75,-6.9 -23.24,-14.03 -34.46,-21.38 16.38,-39.29 25.43,-82.46 25.43,-127.76 0,-168.66 -125.47,-307.73 -287.36,-327.42 -0.78,-13.63 -1.23,-27.39 -1.33,-41.26 -12.56,-1.29 -25.3,-1.95 -38.19,-1.95 -12.44,0 -24.74,0.61 -36.87,1.82 -0.1,13.86 -0.55,27.61 -1.33,41.24 -162.53,19.09 -288.68,158.45 -288.68,327.57 0,44.83 8.88,87.56 24.93,126.52 -11.24,7.36 -22.74,14.5 -34.5,21.41 5.16,11.52 10.95,22.88 17.4,34.05 6.22,10.78 12.91,21.12 20.02,31.02 11.56,-6.56 23.19,-12.8 34.88,-18.72 59.45,82.15 155.62,135.54 264.15,135.54 108.06,0 203.86,-52.92 263.37,-134.46zm25.01 -76.34c-71.18,-48.59 -131.22,-106.06 -178.29,-168.18l-0.01 -0.01c-1.87,-4.37 -4.01,-8.67 -6.44,-12.89 -1.5,-2.6 -3.09,-5.13 -4.76,-7.57l-0.02 -0.04c-31.21,-72.67 -51.61,-154.63 -58.3,-241.99 152.87,20.07 270.94,151.95 270.94,311.67 0,42.13 -8.24,82.31 -23.13,119.02zm-327.63 -430.86c-6.54,85.65 -26.26,166.11 -56.43,237.72 -2.86,3.81 -5.52,7.83 -7.96,12.06 -1.5,2.6 -2.89,5.23 -4.17,7.89l-0.03 0.04c-47.47,63.54 -108.46,122.34 -181.04,171.9 -14.58,-36.38 -22.63,-76.13 -22.63,-117.78 0,-160.18 118.75,-292.37 272.26,-311.84z"/>
  <path class="fil0" d="M1781.09 294.15c62.45,7.49 110.87,60.65 110.87,125.12 0,17.73 -3.67,34.6 -10.28,49.91 -5.85,-3.83 -11.5,-7.81 -16.97,-11.93 4.54,-11.79 7.02,-24.59 7.02,-37.97 0,-52.64 -38.44,-96.3 -88.79,-104.44 -0.84,-6.8 -1.46,-13.7 -1.86,-20.68zm85.61 200.82c-23,30.57 -59.57,50.33 -100.78,50.33 -41.38,0 -78.11,-19.94 -101.08,-50.74 6.24,-3.15 12.52,-6.06 18.83,-8.73 19.4,23.94 49.04,39.25 82.26,39.25 33.03,0 62.52,-15.14 81.93,-38.85 6.31,2.67 12.6,5.58 18.85,8.74zm-216.74 -26.26c-6.48,-15.18 -10.07,-31.89 -10.07,-49.44 0,-64.65 48.68,-117.91 111.37,-125.18 -0.39,6.97 -1.02,13.86 -1.85,20.65 -50.6,7.93 -89.3,51.71 -89.3,104.53 0,13.2 2.43,25.83 6.84,37.49 -5.47,4.13 -11.13,8.12 -16.99,11.95z"/>
  <path class="fil1" d="M1786.82 456.59l0 0c16.88,3.58 33.97,9.37 50.72,17.45 -16.32,21.96 -42.32,36.16 -71.62,36.16 -29.43,0 -55.54,-14.33 -71.84,-36.46 16.76,-8.09 33.88,-13.89 50.78,-17.47 6.23,3.68 13.5,5.8 21.26,5.8 7.53,0 14.59,-1.99 20.7,-5.47zm54.74 19.44c3.36,1.7 6.7,3.49 10.02,5.37 2.12,-2.94 4.12,-6.01 5.97,-9.22 1.79,-3.09 3.4,-6.24 4.84,-9.43 -3.37,-1.98 -6.67,-4.03 -9.9,-6.14 4.7,-11.28 7.31,-23.69 7.31,-36.69 0,-48.44 -36.04,-88.39 -82.54,-94.04 -0.22,-3.91 -0.35,-7.87 -0.38,-11.85 -3.61,-0.37 -7.26,-0.56 -10.97,-0.56 -3.57,0 -7.11,0.18 -10.59,0.52 -0.03,3.98 -0.16,7.93 -0.38,11.85 -46.68,5.48 -82.91,45.51 -82.91,94.09 0,12.87 2.55,25.15 7.16,36.34 -3.23,2.11 -6.53,4.17 -9.91,6.15 1.48,3.31 3.15,6.57 5,9.78 1.79,3.09 3.71,6.07 5.75,8.91 3.32,-1.89 6.66,-3.68 10.02,-5.38 17.07,23.6 44.7,38.93 75.87,38.93 31.04,0 58.56,-15.2 75.65,-38.62zm7.19 -21.93c-20.44,-13.96 -37.69,-30.46 -51.21,-48.31l-0 0c-0.54,-1.26 -1.15,-2.49 -1.85,-3.7 -0.43,-0.75 -0.89,-1.47 -1.37,-2.18l-0 -0.01c-8.96,-20.87 -14.82,-44.41 -16.74,-69.51 43.91,5.76 77.82,43.65 77.82,89.52 0,12.1 -2.36,23.64 -6.64,34.19zm-94.1 -123.75c-1.88,24.6 -7.55,47.71 -16.21,68.28 -0.82,1.09 -1.58,2.25 -2.28,3.46 -0.43,0.75 -0.83,1.5 -1.2,2.27l-0.01 0.01c-13.63,18.25 -31.15,35.14 -52,49.37 -4.19,-10.45 -6.5,-21.87 -6.5,-33.83 0,-46.01 34.11,-83.98 78.2,-89.57z"/>
  <path class="fil2" d="M1134.57 444.76l0 -34.63 82.9 0c11.93,0 21.43,-4.08 28.61,-12.3 7.24,-8.22 10.83,-18.93 10.83,-32.26l0 0c0,-13.57 -3.59,-24.41 -10.83,-32.63 -7.18,-8.22 -16.68,-12.3 -28.61,-12.3l-82.9 0 0 -34.63 81.68 0c15.7,0 29.33,3.29 41.02,9.92 11.62,6.57 20.69,15.82 27.15,27.69 6.51,11.93 9.74,25.87 9.74,41.94l0 0c0,15.94 -3.22,29.82 -9.74,41.69 -6.45,11.93 -15.52,21.12 -27.15,27.7 -11.69,6.51 -25.32,9.8 -41.02,9.8l-81.68 0zm-18.75 100.55l0 -259.28 36.4 0 0 259.28 -36.4 0z"/>
  <polygon id="_1_10" class="fil2" points="1376.02,286.03 1376.02,545.31 1339.62,545.31 1339.62,286.03 "/>
  <path id="_2_11" class="fil2" d="M1440.17 545.31l0 -259.28 36.4 0 0 259.28 -36.4 0zm18.2 0l0 -34.57 148.39 0 0 34.57 -148.39 0z"/>
  <path id="_3_12" class="fil2" d="M1981.33 545.31l0 -238.04 36.33 0 0 238.04 -36.33 0zm-73.34 -224.65l0 -34.63 182.96 0 0 34.63 -182.96 0z"/>
  <path id="_4_13" class="fil2" d="M2238.97 545.31l0 -33.72 70.24 0c19.29,0 32.93,-3.65 40.96,-11.02 7.97,-7.36 11.99,-17.1 11.99,-29.09l0 -0.55c0,-12.84 -3.41,-23.07 -10.22,-30.74 -6.81,-7.67 -18.07,-11.5 -33.78,-11.5l-79.19 0 0 -32.8 79.19 0c13.39,0 23.56,-3.17 30.37,-9.56 6.88,-6.33 10.29,-15.64 10.29,-27.87l0 0c0,-12.96 -3.83,-22.64 -11.44,-29.09 -7.61,-6.39 -18.99,-9.62 -34.21,-9.62l-74.19 0 0 -33.72 80.77 0c25.56,0 44.55,6.39 57.09,19.11 12.48,12.72 18.69,29.76 18.69,51.19l0 0c0,12.9 -3.77,24.77 -11.38,35.54 -7.61,10.78 -19.6,17.65 -35.85,20.57 16,2.37 28.48,9.49 37.37,21.24 8.82,11.75 13.27,25.26 13.27,40.48l0 0.55c0,21.12 -6.81,38.22 -20.51,51.19 -13.69,12.96 -32.2,19.42 -55.63,19.42l-83.81 0zm-21.43 0l0 -259.28 36.22 0 0 259.28 -36.22 0z"/>
  <path id="_5_14" class="fil2" d="M2422.96 545.31l95.62 -259.28 30.98 0 95.62 259.28 -39.26 0 -71.88 -209.19 -71.82 209.19 -39.26 0zm44.07 -56.91l0 -34.57 136.4 0 0 34.57 -136.4 0z"/>
  <polygon id="_6_15" class="fil2" points="2684.38,545.13 2684.38,286.03 2717.37,286.03 2844.15,486.46 2839.89,491.08 2839.89,286.03 2875.92,286.03 2875.92,545.13 2842.57,545.13 2716.15,347.74 2720.41,343.12 2720.41,545.13 "/>
  <path id="_7_16" class="fil2" d="M2964.72 545.31l0 -34.57 58.68 0c19.11,0 33.96,-4.99 44.43,-14.91 10.53,-9.92 15.83,-23.92 15.83,-42l0 -76.32c0,-18.08 -5.3,-32.08 -15.83,-42 -10.47,-9.92 -25.32,-14.85 -44.43,-14.85l-58.68 0 0 -34.63 57.58 0c31.41,0 55.63,8.15 72.85,24.35 17.17,16.25 25.75,39.07 25.75,68.59l0 73.46c0,19.6 -3.83,36.33 -11.56,50.15 -7.73,13.88 -18.99,24.47 -33.72,31.77 -14.73,7.3 -32.56,10.96 -53.5,10.96l-57.4 0zm-24.65 0l0 -259.28 36.4 0 0 259.28 -36.4 0z"/>
  <path id="_8_17" class="fil2" d="M3259.98 547.99c-28.91,0 -51.25,-8.4 -67.13,-25.26 -15.89,-16.8 -23.8,-40.54 -23.8,-71.21l0 -165.49 36.33 0 0 166.71c0,18.93 4.81,33.54 14.3,43.88 9.5,10.35 22.94,15.52 40.29,15.52 17.47,0 30.98,-5.17 40.54,-15.52 9.62,-10.35 14.37,-24.95 14.37,-43.88l0 -166.71 36.4 0 0 165.49c0,30.67 -7.97,54.41 -23.92,71.21 -15.89,16.86 -38.41,25.26 -67.38,25.26z"/>
  <polygon id="_9_18" class="fil2" points="3408.3,545.13 3408.3,286.03 3441.29,286.03 3568.07,486.46 3563.81,491.08 3563.81,286.03 3599.85,286.03 3599.85,545.13 3566.49,545.13 3440.07,347.74 3444.33,343.12 3444.33,545.13 "/>
  <path id="_10_19" class="fil2" d="M3751.4 405.69l89.84 0 0 45.28c0,19.54 -3.78,36.52 -11.32,51.13 -7.55,14.54 -18.07,25.81 -31.65,33.84 -13.51,8.04 -29.46,12.05 -47.78,12.05 -18.38,0 -34.51,-3.77 -48.33,-11.32 -13.75,-7.55 -24.46,-18.2 -32.07,-31.96 -7.61,-13.69 -11.44,-29.7 -11.44,-48.02l0 -76.51c0,-19.48 3.77,-36.46 11.32,-51 7.61,-14.49 18.14,-25.75 31.71,-33.78 13.51,-8.04 29.46,-12.05 47.78,-12.05 15.09,0 28.85,3.22 41.26,9.61 12.42,6.45 22.83,15.4 31.29,26.96 8.46,11.5 14.12,25.02 17.1,40.48l0 0 -39.38 0 0 0c-3.35,-13.45 -9.8,-23.74 -19.41,-30.86 -9.68,-7.12 -19.96,-10.71 -30.86,-10.71 -16.19,0 -29.16,5.66 -38.89,16.86 -9.74,11.26 -14.61,26.05 -14.61,44.49l0 76.51c0,16.86 4.99,30.37 14.97,40.54 9.98,10.17 23.19,15.28 39.56,15.28 16.19,0 29.16,-5.35 38.89,-16.07 9.74,-10.71 14.61,-25.63 14.61,-44.74l0 -11.26 -52.59 0 0 -34.75z"/>
  <path class="fil2" d="M1130.22 898.13c-5.93,0 -11.38,-1.21 -16.42,-3.64 -5.01,-2.43 -9.09,-5.8 -12.23,-10.17l12.89 -9.28c1.45,2.53 3.53,4.48 6.25,5.87 2.74,1.37 5.9,2.08 9.51,2.08 6.11,0 10.86,-1.92 14.23,-5.72 3.37,-3.82 5.06,-9.17 5.06,-16.05l0 -76.53 15.76 0 0 76.58c0,11.7 -3.06,20.77 -9.14,27.2 -6.11,6.43 -14.73,9.65 -25.91,9.65z"/>
  <path id="_1_20" class="fil2" d="M1197.48 896.97l41.4 -112.27 13.42 0 41.4 112.27 -17 0 -31.12 -90.58 -31.1 90.58 -17 0zm19.08 -24.64l0 -14.97 59.06 0 0 14.97 -59.06 0z"/>
  <path id="_2_21" class="fil2" d="M1357.33 898.13c-5.46,0 -10.59,-0.53 -15.42,-1.56 -4.8,-1.03 -9.3,-2.56 -13.52,-4.61 -4.19,-2.08 -8.12,-4.64 -11.76,-7.72l0 0 9.8 -12.04 0 0c4.27,3.69 8.99,6.48 14.13,8.33 5.14,1.85 10.73,2.77 16.76,2.77 8.12,0 14.41,-1.5 18.89,-4.54 4.48,-3.06 6.72,-7.3 6.72,-12.75l0 -0.08c0,-4.27 -1.13,-7.54 -3.4,-9.8 -2.27,-2.26 -5.22,-3.95 -8.91,-5.06 -3.69,-1.11 -7.69,-2 -12.09,-2.74 -4.22,-0.71 -8.46,-1.56 -12.76,-2.53 -4.3,-0.97 -8.25,-2.53 -11.86,-4.61 -3.61,-2.08 -6.51,-5.09 -8.7,-8.99 -2.19,-3.9 -3.27,-9.15 -3.27,-15.68l0 -0.08c0,-10.44 3.48,-18.53 10.41,-24.27 6.96,-5.74 16.76,-8.62 29.44,-8.62 6.01,0 11.91,0.98 17.66,2.9 5.77,1.93 11.39,4.88 16.84,8.86l0 0 -8.96 12.49 0 0c-4.27,-3.19 -8.51,-5.56 -12.78,-7.09 -4.24,-1.56 -8.49,-2.32 -12.76,-2.32 -7.67,0 -13.65,1.53 -17.89,4.59 -4.24,3.06 -6.35,7.41 -6.35,13.02l0 0.08c0,4.22 1.21,7.43 3.69,9.65 2.48,2.22 5.72,3.85 9.7,4.91 3.98,1.05 8.28,2.06 12.86,2.98 4.11,0.81 8.22,1.82 12.33,2.98 4.14,1.13 7.88,2.82 11.26,5.01 3.37,2.19 6.06,5.19 8.09,8.99 2.03,3.82 3.06,8.78 3.06,14.92l0 0.16c0,10.33 -3.61,18.34 -10.8,24.01 -7.22,5.67 -17.34,8.49 -30.41,8.49z"/>
  <path id="_3_22" class="fil2" d="M1429.2 896.97l41.4 -112.27 13.42 0 41.4 112.27 -17 0 -31.12 -90.58 -31.1 90.58 -17 0zm19.08 -24.64l0 -14.97 59.06 0 0 14.97 -59.06 0z"/>
  <path id="_4_23" class="fil2" d="M1656.79 898.13c-5.46,0 -10.59,-0.53 -15.42,-1.56 -4.8,-1.03 -9.3,-2.56 -13.52,-4.61 -4.19,-2.08 -8.12,-4.64 -11.76,-7.72l0 0 9.8 -12.04 0 0c4.27,3.69 8.99,6.48 14.13,8.33 5.14,1.85 10.73,2.77 16.76,2.77 8.12,0 14.41,-1.5 18.89,-4.54 4.48,-3.06 6.72,-7.3 6.72,-12.75l0 -0.08c0,-4.27 -1.13,-7.54 -3.4,-9.8 -2.27,-2.26 -5.22,-3.95 -8.91,-5.06 -3.69,-1.11 -7.69,-2 -12.09,-2.74 -4.22,-0.71 -8.46,-1.56 -12.76,-2.53 -4.3,-0.97 -8.25,-2.53 -11.86,-4.61 -3.61,-2.08 -6.51,-5.09 -8.7,-8.99 -2.19,-3.9 -3.27,-9.15 -3.27,-15.68l0 -0.08c0,-10.44 3.48,-18.53 10.41,-24.27 6.96,-5.74 16.76,-8.62 29.44,-8.62 6.01,0 11.91,0.98 17.66,2.9 5.77,1.93 11.39,4.88 16.84,8.86l0 0 -8.96 12.49 0 0c-4.27,-3.19 -8.51,-5.56 -12.78,-7.09 -4.24,-1.56 -8.49,-2.32 -12.76,-2.32 -7.67,0 -13.65,1.53 -17.89,4.59 -4.24,3.06 -6.35,7.41 -6.35,13.02l0 0.08c0,4.22 1.21,7.43 3.69,9.65 2.48,2.22 5.72,3.85 9.7,4.91 3.98,1.05 8.28,2.06 12.86,2.98 4.11,0.81 8.22,1.82 12.33,2.98 4.14,1.13 7.88,2.82 11.26,5.01 3.37,2.19 6.06,5.19 8.09,8.99 2.03,3.82 3.06,8.78 3.06,14.92l0 0.16c0,10.33 -3.61,18.34 -10.8,24.01 -7.22,5.67 -17.34,8.49 -30.41,8.49z"/>
  <path id="_5_24" class="fil2" d="M1774.22 898.13c-12.52,0 -22.19,-3.64 -29.07,-10.94 -6.88,-7.28 -10.31,-17.56 -10.31,-30.83l0 -71.66 15.74 0 0 72.18c0,8.2 2.08,14.52 6.19,19 4.11,4.48 9.94,6.72 17.44,6.72 7.57,0 13.42,-2.24 17.56,-6.72 4.16,-4.48 6.22,-10.81 6.22,-19l0 -72.18 15.76 0 0 71.66c0,13.28 -3.45,23.56 -10.35,30.83 -6.88,7.3 -16.63,10.94 -29.18,10.94z"/>
  <path id="_6_25" class="fil2" d="M1865.65 853.44l0 -15 35.9 0c5.17,0 9.28,-1.77 12.39,-5.33 3.13,-3.56 4.69,-8.19 4.69,-13.96l0 0c0,-5.88 -1.56,-10.57 -4.69,-14.13 -3.11,-3.56 -7.22,-5.33 -12.39,-5.33l-35.9 0 0 -14.99 35.37 0c6.8,0 12.7,1.42 17.76,4.3 5.03,2.85 8.96,6.85 11.75,11.99 2.82,5.17 4.22,11.2 4.22,18.16l0 0c0,6.9 -1.4,12.91 -4.22,18.05 -2.79,5.17 -6.72,9.15 -11.75,11.99 -5.06,2.82 -10.96,4.24 -17.76,4.24l-35.37 0zm-8.11 43.54l0 -112.27 15.76 0 0 112.27 -15.76 0z"/>
  <polygon id="_7_26" class="fil2" points="1989.29,784.7 1989.29,896.97 1973.53,896.97 1973.53,784.7 "/>
  <path id="_8_27" class="fil2" d="M2043.03 849.48l0 -14.97 38.29 0c4.59,0 8.28,-1.61 11.04,-4.8 2.8,-3.19 4.17,-7.41 4.17,-12.65l0 0c0,-5.24 -1.37,-9.49 -4.17,-12.68 -2.77,-3.19 -6.46,-4.77 -11.04,-4.77l-38.29 0 0 -15 37.69 0c6.54,0 12.26,1.37 17.13,4.06 4.9,2.72 8.7,6.48 11.39,11.31 2.72,4.85 4.06,10.54 4.06,17.08l0 0c0,6.48 -1.37,12.15 -4.08,17.02 -2.74,4.85 -6.54,8.65 -11.39,11.33 -4.88,2.71 -10.57,4.06 -17.11,4.06l-37.69 0zm-6.88 47.49l0 -112.35 15.76 0 0 112.35 -15.76 0zm63.17 0l-25.72 -50.97 15.68 -3.53 28.72 54.5 -18.69 0z"/>
  <path id="_9_28" class="fil2" d="M2419.4 849.48l0 -14.97 38.29 0c4.59,0 8.28,-1.61 11.04,-4.8 2.8,-3.19 4.17,-7.41 4.17,-12.65l0 0c0,-5.24 -1.37,-9.49 -4.17,-12.68 -2.77,-3.19 -6.46,-4.77 -11.04,-4.77l-38.29 0 0 -15 37.69 0c6.54,0 12.26,1.37 17.13,4.06 4.9,2.72 8.7,6.48 11.39,11.31 2.72,4.85 4.06,10.54 4.06,17.08l0 0c0,6.48 -1.37,12.15 -4.08,17.02 -2.74,4.85 -6.54,8.65 -11.39,11.33 -4.88,2.71 -10.57,4.06 -17.11,4.06l-37.69 0zm-6.88 47.49l0 -112.35 15.76 0 0 112.35 -15.76 0zm63.17 0l-25.72 -50.97 15.68 -3.53 28.72 54.5 -18.69 0z"/>
  <path id="_10_29" class="fil2" d="M2529.91 896.97l0 -112.27 15.76 0 0 112.27 -15.76 0zm7.64 0l0 -14.97 64.49 0 0 14.97 -64.49 0zm0 -48.26l0 -14.97 55.98 0 0 14.97 -55.98 0zm0 -49.02l0 -14.99 64.49 0 0 14.99 -64.49 0z"/>
  <polygon id="_11_30" class="fil2" points="2638.73,896.89 2638.73,784.7 2653.02,784.7 2707.91,871.49 2706.07,873.49 2706.07,784.7 2721.67,784.7 2721.67,896.89 2707.22,896.89 2652.49,811.43 2654.33,809.43 2654.33,896.89 "/>
  <path id="_12_31" class="fil2" d="M2786.27 896.97l0 -103.07 15.74 0 0 103.07 -15.74 0zm-31.76 -97.28l0 -14.99 79.22 0 0 14.99 -79.22 0z"/>
  <path id="_13_32" class="fil2" d="M2845.73 896.97l41.4 -112.27 13.42 0 41.4 112.27 -17 0 -31.12 -90.58 -31.1 90.58 -17 0zm19.08 -24.64l0 -14.97 59.06 0 0 14.97 -59.06 0z"/>
  <path id="_14_33" class="fil2" d="M2973.24 896.97l0 -112.27 15.76 0 0 112.27 -15.76 0zm7.88 0l0 -14.97 64.25 0 0 14.97 -64.25 0z"/>
  <path id="_15_34" class="fil2" d="M3131.87 837.76l62.7 0 0 14.97 -62.7 0 0 -14.97zm39.21 -23.85l0 62.7 -15.73 0 0 -62.7 15.73 0z"/>
  <path id="_16_35" class="fil2" d="M3300.26 896.97l0 -14.97 25.41 0c8.28,0 14.7,-2.16 19.24,-6.46 4.56,-4.3 6.85,-10.36 6.85,-18.19l0 -33.05c0,-7.83 -2.29,-13.89 -6.85,-18.19 -4.53,-4.3 -10.96,-6.43 -19.24,-6.43l-25.41 0 0 -14.99 24.93 0c13.6,0 24.09,3.53 31.55,10.54 7.43,7.04 11.15,16.92 11.15,29.7l0 31.81c0,8.48 -1.66,15.73 -5.01,21.72 -3.35,6.01 -8.22,10.59 -14.6,13.76 -6.38,3.16 -14.1,4.74 -23.17,4.74l-24.85 0zm-10.67 0l0 -112.27 15.76 0 0 112.27 -15.76 0z"/>
  <path id="_17_36" class="fil2" d="M3413.01 849.48l0 -14.97 38.29 0c4.59,0 8.28,-1.61 11.04,-4.8 2.8,-3.19 4.17,-7.41 4.17,-12.65l0 0c0,-5.24 -1.37,-9.49 -4.17,-12.68 -2.77,-3.19 -6.46,-4.77 -11.04,-4.77l-38.29 0 0 -15 37.69 0c6.54,0 12.26,1.37 17.13,4.06 4.9,2.72 8.7,6.48 11.39,11.31 2.72,4.85 4.06,10.54 4.06,17.08l0 0c0,6.48 -1.37,12.15 -4.08,17.02 -2.74,4.85 -6.54,8.65 -11.39,11.33 -4.88,2.71 -10.57,4.06 -17.11,4.06l-37.69 0zm-6.88 47.49l0 -112.35 15.76 0 0 112.35 -15.76 0zm63.17 0l-25.72 -50.97 15.68 -3.53 28.72 54.5 -18.69 0z"/>
  <polygon id="_18_37" class="fil2" points="3539.28,784.7 3539.28,896.97 3523.52,896.97 3523.52,784.7 "/>
  <polygon id="_19_38" class="fil2" points="3609.51,896.97 3572.91,784.7 3590.04,784.7 3617,872.73 3643.93,784.7 3661.09,784.7 3624.48,896.97 "/>
  <path id="_20_39" class="fil2" d="M3692.37 896.97l0 -112.27 15.76 0 0 112.27 -15.76 0zm7.64 0l0 -14.97 64.49 0 0 14.97 -64.49 0zm0 -48.26l0 -14.97 55.98 0 0 14.97 -55.98 0zm0 -49.02l0 -14.99 64.49 0 0 14.99 -64.49 0z"/>
  <path id="_21_40" class="fil2" d="M3808.07 849.48l0 -14.97 38.29 0c4.59,0 8.28,-1.61 11.04,-4.8 2.8,-3.19 4.17,-7.41 4.17,-12.65l0 0c0,-5.24 -1.37,-9.49 -4.17,-12.68 -2.77,-3.19 -6.46,-4.77 -11.04,-4.77l-38.29 0 0 -15 37.69 0c6.54,0 12.26,1.37 17.13,4.06 4.9,2.72 8.7,6.48 11.39,11.31 2.72,4.85 4.06,10.54 4.06,17.08l0 0c0,6.48 -1.37,12.15 -4.08,17.02 -2.74,4.85 -6.54,8.65 -11.39,11.33 -4.88,2.71 -10.57,4.06 -17.11,4.06l-37.69 0zm-6.88 47.49l0 -112.35 15.76 0 0 112.35 -15.76 0zm63.17 0l-25.72 -50.97 15.68 -3.53 28.72 54.5 -18.69 0z"/>
  <polygon id="_22_41" class="fil3" points="2252.07,921.44 2252.07,665.65 2281.11,665.65 2281.11,921.44 "/>
  <rect class="fil1" x="1100.48" y="662.72" width="2769.61" height="30.68"/>
 </g>
</svg>
