<?xml version="1.0" encoding="UTF-8"?>
<!DOCTYPE svg PUBLIC "-//W3C//DTD SVG 1.1//EN" "http://www.w3.org/Graphics/SVG/1.1/DTD/svg11.dtd">
<!-- Creator: CorelDRAW (Evaluation Version) -->
<svg xmlns="http://www.w3.org/2000/svg" xml:space="preserve" width="3.35894in" height="0.770272in" version="1.1" style="shape-rendering:geometricPrecision; text-rendering:geometricPrecision; image-rendering:optimizeQuality; fill-rule:evenodd; clip-rule:evenodd"
viewBox="0 0 3515.22 806.11"
 xmlns:xlink="http://www.w3.org/1999/xlink"
 xmlns:xodm="http://www.corel.com/coreldraw/odm/2003">
 <defs>
  <style type="text/css">
   <![CDATA[
    .fil0 {fill:#373435}
    .fil1 {fill:#0098DA}
    .fil2 {fill:#373435;fill-rule:nonzero}
    .fil3 {fill:#0098DA;fill-rule:nonzero}
   ]]>
  </style>
 </defs>
 <g id="Layer_x0020_1">
  <metadata id="CorelCorpID_0Corel-Layer"/>
  <path class="fil0" d="M859.82 13.65c78.9,9.46 140.06,76.62 140.06,158.07 0,22.4 -4.63,43.72 -12.98,63.05 -7.38,-4.84 -14.53,-9.87 -21.44,-15.08 5.73,-14.89 8.87,-31.06 8.87,-47.97 0,-66.5 -48.57,-121.66 -112.17,-131.94 -1.06,-8.59 -1.85,-17.3 -2.35,-26.12zm108.15 253.7c-29.05,38.61 -75.26,63.59 -127.31,63.59 -52.28,0 -98.67,-25.19 -127.7,-64.11 7.88,-3.98 15.82,-7.66 23.79,-11.03 24.5,30.25 61.95,49.59 103.91,49.59 41.73,0 78.99,-19.12 103.5,-49.08 7.97,3.37 15.92,7.05 23.81,11.03zm-273.81 -33.18c-8.19,-19.18 -12.72,-40.29 -12.72,-62.46 0,-81.67 61.49,-148.96 140.7,-158.14 -0.49,8.81 -1.28,17.51 -2.34,26.09 -63.92,10.02 -112.82,65.32 -112.82,132.05 0,16.68 3.07,32.64 8.64,47.36 -6.91,5.22 -14.07,10.26 -21.46,15.1z"/>
  <path class="fil1" d="M867.06 218.85l0 0c21.33,4.52 42.92,11.84 64.07,22.05 -20.62,27.73 -53.47,45.68 -90.48,45.68 -37.18,0 -70.16,-18.11 -90.76,-46.07 21.18,-10.22 42.8,-17.55 64.16,-22.07 7.87,4.65 17.06,7.32 26.86,7.32 9.51,0 18.44,-2.51 26.15,-6.91zm69.17 24.56c4.24,2.15 8.46,4.41 12.66,6.79 2.69,-3.71 5.2,-7.59 7.54,-11.64 2.26,-3.91 4.29,-7.89 6.12,-11.92 -4.26,-2.5 -8.43,-5.09 -12.5,-7.76 5.94,-14.26 9.23,-29.92 9.23,-46.36 0,-61.2 -45.53,-111.66 -104.27,-118.8 -0.28,-4.95 -0.44,-9.94 -0.48,-14.97 -4.55,-0.47 -9.18,-0.71 -13.86,-0.71 -4.52,0 -8.98,0.22 -13.38,0.66 -0.04,5.03 -0.2,10.02 -0.48,14.96 -58.98,6.93 -104.75,57.5 -104.75,118.86 0,16.27 3.22,31.77 9.05,45.91 -4.07,2.67 -8.25,5.27 -12.52,7.77 1.87,4.18 3.97,8.3 6.31,12.36 2.26,3.91 4.68,7.66 7.26,11.26 4.19,-2.38 8.42,-4.65 12.66,-6.79 21.57,29.81 56.47,49.18 95.85,49.18 39.21,0 73.97,-19.2 95.57,-48.79zm9.07 -27.7c-25.83,-17.63 -47.61,-38.48 -64.69,-61.02l-0 -0c-0.68,-1.59 -1.45,-3.15 -2.34,-4.68 -0.54,-0.94 -1.12,-1.86 -1.72,-2.75l-0.01 -0.02c-11.32,-26.37 -18.73,-56.11 -21.15,-87.81 55.47,7.28 98.31,55.14 98.31,113.09 0,15.29 -2.99,29.87 -8.39,43.19zm-118.88 -156.34c-2.37,31.07 -9.53,60.27 -20.48,86.26 -1.03,1.38 -2,2.84 -2.88,4.38 -0.54,0.94 -1.05,1.9 -1.52,2.86l-0.01 0.02c-17.22,23.06 -39.35,44.39 -65.69,62.38 -5.29,-13.2 -8.21,-27.63 -8.21,-42.74 0,-58.12 43.09,-106.08 98.79,-113.15z"/>
  <path class="fil2" d="M43.07 203.91l0 -43.75 104.72 0c15.07,0 27.07,-5.15 36.14,-15.53 9.15,-10.38 13.68,-23.91 13.68,-40.75l0 0c0,-17.15 -4.54,-30.83 -13.68,-41.21 -9.08,-10.38 -21.07,-15.53 -36.14,-15.53l-104.72 0 0 -43.75 103.19 0c19.84,0 37.06,4.15 51.82,12.53 14.69,8.3 26.14,19.99 34.3,34.98 8.22,15.07 12.3,32.68 12.3,52.98l0 0c0,20.15 -4.08,37.67 -12.3,52.67 -8.15,15.07 -19.61,26.68 -34.3,34.98 -14.76,8.23 -31.99,12.38 -51.82,12.38l-103.19 0zm-23.68 127.03l0 -327.55 45.98 0 0 327.55 -45.98 0z"/>
  <polygon id="_1" class="fil2" points="348.09,3.38 348.09,330.94 302.11,330.94 302.11,3.38 "/>
  <path id="_2" class="fil2" d="M429.14 330.94l0 -327.55 45.98 0 0 327.55 -45.98 0zm22.99 0l0 -43.67 187.46 0 0 43.67 -187.46 0z"/>
  <path id="_3" class="fil2" d="M1112.77 330.94l0 -300.72 45.9 0 0 300.72 -45.9 0zm-92.65 -283.8l0 -43.75 231.13 0 0 43.75 -231.13 0z"/>
  <path id="_4" class="fil2" d="M1438.25 330.94l0 -42.6 88.73 0c24.38,0 41.6,-4.61 51.75,-13.92 10.07,-9.3 15.15,-21.61 15.15,-36.75l0 -0.69c0,-16.23 -4.31,-29.14 -12.92,-38.83 -8.62,-9.69 -22.84,-14.53 -42.68,-14.53l-100.03 0 0 -41.44 100.03 0c16.92,0 29.76,-4 38.37,-12.07 8.69,-8 13,-19.76 13,-35.22l0 0c0,-16.38 -4.84,-28.61 -14.45,-36.76 -9.61,-8.07 -23.99,-12.15 -43.21,-12.15l-93.73 0 0 -42.6 102.03 0c32.29,0 56.29,8.07 72.12,24.14 15.76,16.07 23.61,37.6 23.61,64.66l0 0c0,16.3 -4.77,31.3 -14.38,44.91 -9.61,13.61 -24.76,22.3 -45.29,25.99 20.22,3 35.99,11.99 47.21,26.83 11.15,14.84 16.77,31.91 16.77,51.13l0 0.69c0,26.68 -8.62,48.29 -25.91,64.67 -17.3,16.38 -40.68,24.53 -70.28,24.53l-105.88 0zm-27.07 0l0 -327.55 45.75 0 0 327.55 -45.75 0z"/>
  <path id="_5" class="fil2" d="M1670.69 330.94l120.8 -327.55 39.14 0 120.8 327.55 -49.59 0 -90.8 -264.27 -90.73 264.27 -49.59 0zm55.67 -71.89l0 -43.67 172.31 0 0 43.67 -172.31 0z"/>
  <polygon id="_6" class="fil2" points="2000.94,330.71 2000.94,3.38 2042.62,3.38 2202.78,256.58 2197.39,262.43 2197.39,3.38 2242.91,3.38 2242.91,330.71 2200.78,330.71 2041.07,81.35 2046.46,75.51 2046.46,330.71 "/>
  <path id="_7" class="fil2" d="M2355.1 330.94l0 -43.67 74.12 0c24.14,0 42.91,-6.3 56.13,-18.84 13.3,-12.53 20,-30.22 20,-53.06l0 -96.42c0,-22.84 -6.69,-40.52 -20,-53.06 -13.22,-12.53 -31.99,-18.76 -56.13,-18.76l-74.12 0 0 -43.75 72.74 0c39.68,0 70.28,10.3 92.04,30.76 21.68,20.53 32.52,49.36 32.52,86.66l0 92.81c0,24.76 -4.85,45.9 -14.61,63.36 -9.76,17.53 -23.99,30.91 -42.6,40.14 -18.61,9.23 -41.14,13.84 -67.59,13.84l-72.51 0zm-31.14 0l0 -327.55 45.98 0 0 327.55 -45.98 0z"/>
  <path id="_8" class="fil2" d="M2728.1 334.32c-36.53,0 -64.74,-10.61 -84.81,-31.91 -20.07,-21.22 -30.07,-51.21 -30.07,-89.96l0 -209.07 45.91 0 0 210.6c0,23.91 6.07,42.37 18.07,55.44 12,13.07 28.99,19.61 50.9,19.61 22.06,0 39.13,-6.53 51.21,-19.61 12.15,-13.07 18.15,-31.52 18.15,-55.44l0 -210.6 45.98 0 0 209.07c0,38.75 -10.07,68.74 -30.22,89.96 -20.07,21.3 -48.52,31.91 -85.11,31.91z"/>
  <polygon id="_9" class="fil2" points="2915.48,330.71 2915.48,3.38 2957.16,3.38 3117.32,256.58 3111.94,262.43 3111.94,3.38 3157.46,3.38 3157.46,330.71 3115.32,330.71 2955.62,81.35 2961,75.51 2961,330.71 "/>
  <path id="_10" class="fil2" d="M3348.92 154.55l113.49 0 0 57.21c0,24.68 -4.77,46.13 -14.31,64.59 -9.53,18.38 -22.83,32.6 -39.98,42.75 -17.07,10.15 -37.21,15.22 -60.36,15.22 -23.22,0 -43.6,-4.77 -61.05,-14.3 -17.38,-9.53 -30.91,-22.99 -40.52,-40.37 -9.61,-17.3 -14.45,-37.52 -14.45,-60.67l0 -96.65c0,-24.61 4.77,-46.06 14.3,-64.44 9.61,-18.3 22.91,-32.52 40.06,-42.67 17.07,-10.15 37.21,-15.22 60.36,-15.22 19.07,0 36.45,4.07 52.13,12.15 15.69,8.15 28.83,19.46 39.52,34.07 10.69,14.53 17.84,31.6 21.61,51.13l0 0 -49.75 0 0 0c-4.23,-16.99 -12.38,-29.99 -24.53,-38.99 -12.22,-8.99 -25.22,-13.53 -38.99,-13.53 -20.45,0 -36.83,7.15 -49.13,21.3 -12.3,14.23 -18.45,32.91 -18.45,56.21l0 96.65c0,21.3 6.31,38.37 18.92,51.21 12.61,12.84 29.29,19.3 49.98,19.3 20.45,0 36.83,-6.77 49.13,-20.3 12.3,-13.53 18.45,-32.37 18.45,-56.51l0 -14.23 -66.43 0 0 -43.9z"/>
  <path class="fil2" d="M37.57 776.66c-7.49,0 -14.38,-1.53 -20.74,-4.6 -6.33,-3.06 -11.49,-7.32 -15.45,-12.85l16.28 -11.72c1.83,3.2 4.46,5.66 7.89,7.42 3.46,1.73 7.46,2.63 12.02,2.63 7.72,0 13.72,-2.43 17.98,-7.22 4.26,-4.83 6.39,-11.59 6.39,-20.28l0 -96.69 19.91 0 0 96.75c0,14.78 -3.86,26.23 -11.55,34.36 -7.73,8.13 -18.61,12.19 -32.73,12.19z"/>
  <path id="_1_10" class="fil2" d="M122.54 775.19l52.31 -141.83 16.95 0 52.31 141.83 -21.47 0 -39.32 -114.43 -39.29 114.43 -21.47 0zm24.11 -31.13l0 -18.91 74.61 0 0 18.91 -74.61 0z"/>
  <path id="_2_11" class="fil2" d="M324.48 776.66c-6.89,0 -13.39,-0.67 -19.48,-1.97 -6.06,-1.3 -11.75,-3.23 -17.08,-5.83 -5.29,-2.63 -10.26,-5.86 -14.85,-9.76l0 0 12.39 -15.22 0 0c5.39,4.66 11.36,8.19 17.85,10.52 6.49,2.33 13.55,3.49 21.17,3.49 10.26,0 18.21,-1.9 23.87,-5.73 5.66,-3.86 8.49,-9.22 8.49,-16.11l0 -0.1c0,-5.39 -1.43,-9.52 -4.29,-12.39 -2.86,-2.86 -6.59,-4.99 -11.25,-6.39 -4.66,-1.4 -9.72,-2.53 -15.28,-3.46 -5.33,-0.9 -10.69,-1.97 -16.11,-3.2 -5.43,-1.23 -10.42,-3.19 -14.99,-5.83 -4.56,-2.63 -8.22,-6.42 -10.98,-11.35 -2.76,-4.93 -4.13,-11.55 -4.13,-19.81l0 -0.1c0,-13.18 4.39,-23.4 13.15,-30.66 8.79,-7.26 21.18,-10.89 37.19,-10.89 7.59,0 15.05,1.23 22.31,3.66 7.29,2.43 14.38,6.16 21.27,11.19l0 0 -11.32 15.78 0 0c-5.39,-4.03 -10.75,-7.02 -16.15,-8.96 -5.36,-1.96 -10.72,-2.93 -16.11,-2.93 -9.69,0 -17.25,1.93 -22.61,5.79 -5.36,3.86 -8.03,9.36 -8.03,16.45l0 0.1c0,5.33 1.53,9.39 4.66,12.19 3.13,2.8 7.22,4.86 12.25,6.19 5.03,1.33 10.46,2.6 16.25,3.76 5.19,1.03 10.39,2.3 15.58,3.76 5.23,1.43 9.96,3.56 14.22,6.32 4.26,2.76 7.66,6.56 10.22,11.36 2.56,4.83 3.86,11.09 3.86,18.85l0 0.2c0,13.05 -4.56,23.17 -13.65,30.33 -9.12,7.16 -21.91,10.72 -38.42,10.72z"/>
  <path id="_3_12" class="fil2" d="M415.27 775.19l52.31 -141.83 16.95 0 52.31 141.83 -21.47 0 -39.32 -114.43 -39.29 114.43 -21.47 0zm24.11 -31.13l0 -18.91 74.61 0 0 18.91 -74.61 0z"/>
  <path id="_4_13" class="fil2" d="M702.78 776.66c-6.89,0 -13.39,-0.67 -19.48,-1.97 -6.06,-1.3 -11.75,-3.23 -17.08,-5.83 -5.29,-2.63 -10.26,-5.86 -14.85,-9.76l0 0 12.39 -15.22 0 0c5.39,4.66 11.36,8.19 17.85,10.52 6.49,2.33 13.55,3.49 21.17,3.49 10.26,0 18.21,-1.9 23.87,-5.73 5.66,-3.86 8.49,-9.22 8.49,-16.11l0 -0.1c0,-5.39 -1.43,-9.52 -4.29,-12.39 -2.86,-2.86 -6.59,-4.99 -11.25,-6.39 -4.66,-1.4 -9.72,-2.53 -15.28,-3.46 -5.33,-0.9 -10.69,-1.97 -16.11,-3.2 -5.43,-1.23 -10.42,-3.19 -14.99,-5.83 -4.56,-2.63 -8.22,-6.42 -10.98,-11.35 -2.76,-4.93 -4.13,-11.55 -4.13,-19.81l0 -0.1c0,-13.18 4.39,-23.4 13.15,-30.66 8.79,-7.26 21.18,-10.89 37.19,-10.89 7.59,0 15.05,1.23 22.31,3.66 7.29,2.43 14.38,6.16 21.27,11.19l0 0 -11.32 15.78 0 0c-5.39,-4.03 -10.75,-7.02 -16.15,-8.96 -5.36,-1.96 -10.72,-2.93 -16.11,-2.93 -9.69,0 -17.25,1.93 -22.61,5.79 -5.36,3.86 -8.03,9.36 -8.03,16.45l0 0.1c0,5.33 1.53,9.39 4.66,12.19 3.13,2.8 7.22,4.86 12.25,6.19 5.03,1.33 10.46,2.6 16.25,3.76 5.19,1.03 10.39,2.3 15.58,3.76 5.23,1.43 9.96,3.56 14.22,6.32 4.26,2.76 7.66,6.56 10.22,11.36 2.56,4.83 3.86,11.09 3.86,18.85l0 0.2c0,13.05 -4.56,23.17 -13.65,30.33 -9.12,7.16 -21.91,10.72 -38.42,10.72z"/>
  <path id="_5_14" class="fil2" d="M851.14 776.66c-15.81,0 -28.03,-4.6 -36.72,-13.82 -8.69,-9.19 -13.02,-22.17 -13.02,-38.95l0 -90.53 19.88 0 0 91.19c0,10.35 2.63,18.35 7.82,24 5.2,5.66 12.55,8.49 22.04,8.49 9.55,0 16.95,-2.83 22.17,-8.49 5.26,-5.66 7.86,-13.65 7.86,-24l0 -91.19 19.91 0 0 90.53c0,16.78 -4.36,29.76 -13.08,38.95 -8.69,9.22 -21.01,13.82 -36.86,13.82z"/>
  <path id="_6_15" class="fil2" d="M966.65 720.19l0 -18.94 45.35 0c6.53,0 11.72,-2.23 15.65,-6.72 3.96,-4.5 5.92,-10.36 5.92,-17.65l0 0c0,-7.42 -1.96,-13.35 -5.92,-17.84 -3.93,-4.5 -9.12,-6.73 -15.65,-6.73l-45.35 0 0 -18.94 44.68 0c8.59,0 16.04,1.8 22.44,5.43 6.36,3.59 11.32,8.65 14.85,15.15 3.56,6.53 5.33,14.15 5.33,22.94l0 0c0,8.72 -1.76,16.31 -5.33,22.81 -3.53,6.53 -8.49,11.55 -14.85,15.15 -6.39,3.56 -13.85,5.36 -22.44,5.36l-44.68 0zm-10.25 55l0 -141.83 19.91 0 0 141.83 -19.91 0z"/>
  <polygon id="_7_16" class="fil2" points="1122.84,633.36 1122.84,775.19 1102.93,775.19 1102.93,633.36 "/>
  <path id="_8_17" class="fil2" d="M1190.73 715.2l0 -18.91 48.38 0c5.79,0 10.45,-2.03 13.95,-6.06 3.53,-4.03 5.26,-9.36 5.26,-15.98l0 0c0,-6.63 -1.73,-11.99 -5.26,-16.01 -3.5,-4.03 -8.16,-6.03 -13.95,-6.03l-48.38 0 0 -18.94 47.61 0c8.26,0 15.48,1.73 21.64,5.13 6.19,3.43 10.99,8.19 14.38,14.28 3.43,6.13 5.13,13.32 5.13,21.57l0 0c0,8.19 -1.73,15.35 -5.16,21.51 -3.46,6.12 -8.26,10.92 -14.38,14.31 -6.16,3.43 -13.35,5.13 -21.61,5.13l-47.61 0zm-8.69 59.99l0 -141.93 19.91 0 0 141.93 -19.91 0zm79.8 0l-32.5 -64.39 19.81 -4.46 36.29 68.85 -23.6 0z"/>
  <path id="_9_18" class="fil2" d="M1666.19 715.2l0 -18.91 48.38 0c5.79,0 10.45,-2.03 13.95,-6.06 3.53,-4.03 5.26,-9.36 5.26,-15.98l0 0c0,-6.63 -1.73,-11.99 -5.26,-16.01 -3.5,-4.03 -8.16,-6.03 -13.95,-6.03l-48.38 0 0 -18.94 47.61 0c8.26,0 15.48,1.73 21.64,5.13 6.19,3.43 10.99,8.19 14.38,14.28 3.43,6.13 5.13,13.32 5.13,21.57l0 0c0,8.19 -1.73,15.35 -5.16,21.51 -3.46,6.12 -8.26,10.92 -14.38,14.31 -6.16,3.43 -13.35,5.13 -21.61,5.13l-47.61 0zm-8.69 59.99l0 -141.93 19.91 0 0 141.93 -19.91 0zm79.8 0l-32.5 -64.39 19.81 -4.46 36.29 68.85 -23.6 0z"/>
  <path id="_10_19" class="fil2" d="M1805.8 775.19l0 -141.83 19.91 0 0 141.83 -19.91 0zm9.65 0l0 -18.91 81.47 0 0 18.91 -81.47 0zm0 -60.96l0 -18.91 70.71 0 0 18.91 -70.71 0zm0 -61.93l0 -18.94 81.47 0 0 18.94 -81.47 0z"/>
  <polygon id="_11" class="fil2" points="1943.27,775.09 1943.27,633.36 1961.31,633.36 2030.66,743 2028.33,745.53 2028.33,633.36 2048.04,633.36 2048.04,775.09 2029.8,775.09 1960.65,667.12 1962.98,664.59 1962.98,775.09 "/>
  <path id="_12" class="fil2" d="M2129.65 775.19l0 -130.21 19.88 0 0 130.21 -19.88 0zm-40.12 -122.89l0 -18.94 100.08 0 0 18.94 -100.08 0z"/>
  <path id="_13" class="fil2" d="M2204.77 775.19l52.31 -141.83 16.95 0 52.31 141.83 -21.47 0 -39.32 -114.43 -39.29 114.43 -21.47 0zm24.11 -31.13l0 -18.91 74.61 0 0 18.91 -74.61 0z"/>
  <path id="_14" class="fil2" d="M2365.85 775.19l0 -141.83 19.91 0 0 141.83 -19.91 0zm9.95 0l0 -18.91 81.17 0 0 18.91 -81.17 0z"/>
  <path id="_15" class="fil2" d="M2566.25 700.38l79.21 0 0 18.91 -79.21 0 0 -18.91zm49.54 -30.13l0 79.21 -19.88 0 0 -79.21 19.88 0z"/>
  <path id="_16" class="fil2" d="M2778.98 775.19l0 -18.91 32.1 0c10.45,0 18.58,-2.73 24.3,-8.16 5.76,-5.43 8.66,-13.08 8.66,-22.97l0 -41.75c0,-9.89 -2.9,-17.55 -8.66,-22.97 -5.73,-5.43 -13.85,-8.13 -24.3,-8.13l-32.1 0 0 -18.94 31.49 0c17.18,0 30.43,4.46 39.85,13.32 9.39,8.89 14.08,21.37 14.08,37.52l0 40.18c0,10.72 -2.1,19.88 -6.32,27.43 -4.23,7.59 -10.39,13.39 -18.45,17.38 -8.05,4 -17.81,5.99 -29.27,5.99l-31.4 0zm-13.48 0l0 -141.83 19.91 0 0 141.83 -19.91 0z"/>
  <path id="_17" class="fil2" d="M2921.41 715.2l0 -18.91 48.38 0c5.79,0 10.45,-2.03 13.95,-6.06 3.53,-4.03 5.26,-9.36 5.26,-15.98l0 0c0,-6.63 -1.73,-11.99 -5.26,-16.01 -3.5,-4.03 -8.16,-6.03 -13.95,-6.03l-48.38 0 0 -18.94 47.61 0c8.26,0 15.48,1.73 21.64,5.13 6.19,3.43 10.99,8.19 14.38,14.28 3.43,6.13 5.13,13.32 5.13,21.57l0 0c0,8.19 -1.73,15.35 -5.16,21.51 -3.46,6.12 -8.26,10.92 -14.38,14.31 -6.16,3.43 -13.35,5.13 -21.61,5.13l-47.61 0zm-8.69 59.99l0 -141.93 19.91 0 0 141.93 -19.91 0zm79.8 0l-32.5 -64.39 19.81 -4.46 36.29 68.85 -23.6 0z"/>
  <polygon id="_18" class="fil2" points="3080.93,633.36 3080.93,775.19 3061.02,775.19 3061.02,633.36 "/>
  <polygon id="_19" class="fil2" points="3169.66,775.19 3123.41,633.36 3145.06,633.36 3179.12,744.56 3213.14,633.36 3234.82,633.36 3188.57,775.19 "/>
  <path id="_20" class="fil2" d="M3274.34 775.19l0 -141.83 19.91 0 0 141.83 -19.91 0zm9.65 0l0 -18.91 81.47 0 0 18.91 -81.47 0zm0 -60.96l0 -18.91 70.71 0 0 18.91 -70.71 0zm0 -61.93l0 -18.94 81.47 0 0 18.94 -81.47 0z"/>
  <path id="_21" class="fil2" d="M3420.5 715.2l0 -18.91 48.38 0c5.79,0 10.45,-2.03 13.95,-6.06 3.53,-4.03 5.26,-9.36 5.26,-15.98l0 0c0,-6.63 -1.73,-11.99 -5.26,-16.01 -3.5,-4.03 -8.16,-6.03 -13.95,-6.03l-48.38 0 0 -18.94 47.61 0c8.26,0 15.48,1.73 21.64,5.13 6.19,3.43 10.99,8.19 14.38,14.28 3.43,6.13 5.13,13.32 5.13,21.57l0 0c0,8.19 -1.73,15.35 -5.16,21.51 -3.46,6.12 -8.26,10.92 -14.38,14.31 -6.16,3.43 -13.35,5.13 -21.61,5.13l-47.61 0zm-8.69 59.99l0 -141.93 19.91 0 0 141.93 -19.91 0zm79.8 0l-32.5 -64.39 19.81 -4.46 36.29 68.85 -23.6 0z"/>
  <polygon id="_22" class="fil3" points="1454.8,806.11 1454.8,482.96 1491.48,482.96 1491.48,806.11 "/>
  <rect class="fil1" x="-0" y="479.25" width="3498.9" height="38.76"/>
 </g>
</svg>
