<?xml version="1.0" encoding="UTF-8"?>
<!DOCTYPE svg PUBLIC "-//W3C//DTD SVG 1.1//EN" "http://www.w3.org/Graphics/SVG/1.1/DTD/svg11.dtd">
<!-- Creator: CorelDRAW (Evaluation Version) -->
<svg xmlns="http://www.w3.org/2000/svg" xml:space="preserve" width="2.60303in" height="2.61447in" version="1.1" style="shape-rendering:geometricPrecision; text-rendering:geometricPrecision; image-rendering:optimizeQuality; fill-rule:evenodd; clip-rule:evenodd"
viewBox="0 0 2564.45 2575.72"
 xmlns:xlink="http://www.w3.org/1999/xlink"
 xmlns:xodm="http://www.corel.com/coreldraw/odm/2003">
 <defs>
  <style type="text/css">
   <![CDATA[
    .fil0 {fill:#373435}
    .fil2 {fill:#00AFEF}
    .fil1 {fill:#0098DA}
   ]]>
  </style>
 </defs>
 <g id="Layer_x0020_1">
  <metadata id="CorelCorpID_0Corel-Layer"/>
  <path class="fil0" d="M183.56 1012.71c4.08,4.09 8.92,8.01 14.06,11.28 35.59,22.63 80.51,13.13 100.35,-21.22 10.52,-18.23 11.86,-39.79 5.5,-59.39 25.01,1.03 48.98,-10.81 62.05,-33.45 14.41,-24.97 11.6,-56.18 -4.66,-80.07 20.24,-2.72 38.61,-14.08 49.46,-32.88 14.87,-25.75 11.42,-58.14 -6.23,-82.29 22.09,-1.48 42.52,-13.09 54.22,-33.35 17.12,-29.65 9.95,-68.12 -15.22,-92.65 -284.59,-141 -559.16,161.78 -259.53,424.03z"/>
  <path class="fil0" d="M1282.16 1963.45l0.06 -0 0.06 0c0.29,0 0.58,-0.01 0.86,-0.01l0.02 0 0.02 -0 0.02 0 0.02 0 0.02 0 0.02 0 0.02 0 0.02 0 0.02 0 0.02 0 0.02 0 0.02 0 0.02 0 0.02 0 0.14 -0 0 0c487.52,-0.78 314.57,-403.83 1071.61,69.81 40.85,-59.52 76.87,-122.61 107.5,-188.7 -630.21,-340.72 -1058.33,-1007.4 -1058.33,-1774.1 0,-21.65 0.46,-43.19 1.14,-64.68 -40.19,-3.75 -80.88,-5.75 -122.04,-5.75l-1.22 0 -1.22 -0c-41.16,0 -81.86,2.01 -122.04,5.75 0.67,21.49 1.14,43.03 1.14,64.68 0,766.7 -428.13,1433.38 -1058.33,1774.1 30.64,66.1 66.65,129.19 107.5,188.7 757.04,-473.64 584.09,-70.59 1071.61,-69.81l0 0 0.14 0 0.02 0 0.02 0 0.02 0 0.02 0 0.02 0 0.02 0 0.02 0 0.02 0 0.02 0 0.02 0 0.02 0 0.02 0 0.02 0 0.02 0c0.28,0 0.57,0.01 0.86,0.01zm0.06 -1600.29l5.85 150.05 7.95 203.83c12.99,3.37 21.93,10.44 21.93,18.61 0,6.14 -5.05,11.66 -13.07,15.45 -0.83,4.76 -2.9,9.11 -5.85,12.68 11.78,3.57 19.72,10.29 19.72,17.99 0,6.14 -5.05,11.66 -13.07,15.45 -0.84,4.81 -2.93,9.19 -5.93,12.78 10.89,3.68 18.11,10.13 18.11,17.47 0,6.14 -5.05,11.66 -13.07,15.45 -0.83,4.77 -2.9,9.11 -5.85,12.68 11.78,3.57 19.72,10.29 19.72,17.99 0,6.14 -5.05,11.66 -13.07,15.45 -0.86,4.92 -3.03,9.39 -6.14,13.03 12.5,3.46 21.04,10.39 21.04,18.37 0,6.14 -5.05,11.66 -13.08,15.45 -0.83,4.77 -2.89,9.11 -5.85,12.68 11.78,3.58 19.71,10.29 19.71,17.99 0,6.14 -5.05,11.66 -13.07,15.45 -0.84,4.81 -2.93,9.18 -5.93,12.78 10.89,3.68 18.11,10.13 18.11,17.47 0,6.14 -5.05,11.66 -13.08,15.45 -0.83,4.77 -2.89,9.11 -5.85,12.69 11.78,3.57 19.71,10.29 19.71,17.99 0,1.57 -0.33,3.1 -0.95,4.57l16.94 0 17.03 35.02 5.91 12.15 182.29 95.1 259.57 135.42 -65.06 81.06 191.42 83.87 -70.5 72.46 222.05 62.6 -73.55 108.7 -721.15 -157.58 -2.9 0.66 -2.9 -0.66 -721.15 157.58 -73.54 -108.7 222.04 -62.6 -70.5 -72.46 191.42 -83.87 -65.06 -81.06 259.56 -135.42 182.29 -95.1 5.91 -12.15 17.03 -35.02 16.95 0c-0.63,-1.47 -0.96,-3 -0.96,-4.57 0,-7.7 7.94,-14.41 19.72,-17.99 -2.95,-3.58 -5.02,-7.92 -5.85,-12.69 -8.02,-3.79 -13.07,-9.31 -13.07,-15.45 0,-7.34 7.22,-13.79 18.11,-17.47 -2.99,-3.6 -5.08,-7.97 -5.93,-12.78 -8.02,-3.8 -13.07,-9.31 -13.07,-15.45 0,-7.7 7.94,-14.41 19.72,-17.99 -2.95,-3.58 -5.02,-7.92 -5.85,-12.68 -8.03,-3.79 -13.08,-9.31 -13.08,-15.45 0,-7.98 8.53,-14.91 21.04,-18.37 -3.11,-3.64 -5.28,-8.11 -6.14,-13.03 -8.02,-3.8 -13.07,-9.31 -13.07,-15.45 0,-7.7 7.94,-14.42 19.72,-17.99 -2.95,-3.58 -5.02,-7.92 -5.85,-12.68 -8.03,-3.79 -13.08,-9.31 -13.08,-15.45 0,-7.34 7.22,-13.79 18.11,-17.47 -2.99,-3.59 -5.08,-7.97 -5.93,-12.78 -8.02,-3.79 -13.07,-9.31 -13.07,-15.45 0,-7.7 7.94,-14.41 19.72,-17.99 -2.95,-3.58 -5.02,-7.92 -5.85,-12.68 -8.02,-3.8 -13.08,-9.31 -13.08,-15.45 0,-8.17 8.94,-15.24 21.93,-18.61l7.95 -203.83 5.85 -150.05z"/>
  <path class="fil1" d="M1438.22 24.35c339.66,40.75 638.38,214.5 842.7,467.62 -64.49,-4.1 -135.03,9 -206.09,44.21 -5.21,5.08 -9.8,10.64 -13.75,16.54 -157.99,-165.21 -368.11,-280.15 -603.98,-318.31 -8.54,-69.07 -14.86,-139.14 -18.87,-210.06zm-312 0c-339.66,40.75 -638.39,214.5 -842.7,467.62 64.49,-4.1 135.03,9 206.09,44.21 5.21,5.08 9.81,10.64 13.75,16.54 157.99,-165.21 368.11,-280.15 603.98,-318.31 8.54,-69.07 14.86,-139.14 18.88,-210.06zm-1075.2 912.2c-33.19,113.86 -51.02,234.27 -51.02,358.85 0,180.1 37.25,351.49 104.37,506.96 59.38,-38.9 116.86,-79.36 172.38,-121.25 -46.06,-119.73 -71.36,-249.76 -71.36,-385.71 0,-67.64 6.27,-133.82 18.22,-198 -14.3,-1.52 -28.71,-6.41 -42.07,-14.9 -6.46,-4.11 -12.53,-9.03 -17.65,-14.16 -49.71,-43.51 -86.72,-87.9 -112.88,-131.79zm205.58 1127.82c233.62,310.52 605.2,511.34 1023.71,511.34 0.63,0 1.26,-0.01 1.89,-0.01l0.04 0c0.63,0 1.26,0.01 1.89,0.01 418.51,0 790.09,-200.83 1023.71,-511.34 -63.45,-32 -127.32,-61.57 -191.44,-88.72 -197.12,240.89 -496.73,394.66 -832.27,394.66l-0.57 0 0 -0.02 -1.32 0.01 -0.04 0 -1.32 -0.01 0 0.02 -0.57 0c-335.55,0 -635.15,-153.78 -832.27,-394.66 -64.12,27.15 -127.98,56.72 -191.44,88.72zm2256.81 -1127.82c33.2,113.86 51.03,234.27 51.03,358.85 0,180.1 -37.25,351.49 -104.38,506.96 -59.38,-38.9 -116.86,-79.36 -172.38,-121.25 46.06,-119.73 71.35,-249.76 71.35,-385.71 0,-67.64 -6.27,-133.82 -18.22,-198 14.3,-1.52 28.71,-6.41 42.07,-14.9 6.47,-4.11 12.53,-9.03 17.65,-14.16 49.71,-43.51 86.72,-87.9 112.88,-131.79z"/>
  <path class="fil0" d="M2380.89 1012.71c-4.08,4.09 -8.91,8.01 -14.06,11.28 -35.59,22.63 -80.51,13.13 -100.34,-21.22 -10.52,-18.23 -11.87,-39.79 -5.5,-59.39 -25.01,1.03 -48.98,-10.81 -62.05,-33.45 -14.41,-24.97 -11.6,-56.18 4.67,-80.07 -20.24,-2.72 -38.61,-14.08 -49.46,-32.88 -14.87,-25.75 -11.41,-58.14 6.23,-82.29 -22.09,-1.48 -42.52,-13.09 -54.22,-33.35 -17.12,-29.65 -9.94,-68.12 15.22,-92.65 284.59,-141 559.16,161.78 259.53,424.03z"/>
  <path class="fil2" d="M1313.64 1106.27l-1.66 -8.27 -7.04 -35.02 -7.01 0c0.26,-1.47 0.4,-3 0.4,-4.57 0,-7.7 -3.28,-14.41 -8.15,-17.99 1.22,-3.58 2.08,-7.92 2.42,-12.69 3.32,-3.79 5.41,-9.31 5.41,-15.45 0,-7.34 -2.99,-13.79 -7.49,-17.47 1.24,-3.6 2.11,-7.97 2.45,-12.78 3.32,-3.8 5.41,-9.31 5.41,-15.45 0,-7.7 -3.28,-14.42 -8.15,-17.99 1.22,-3.58 2.08,-7.92 2.42,-12.68 3.32,-3.79 5.41,-9.31 5.41,-15.45 0,-7.98 -3.53,-14.91 -8.7,-18.37 1.29,-3.64 2.18,-8.11 2.54,-13.03 3.32,-3.8 5.41,-9.31 5.41,-15.45 0,-7.7 -3.28,-14.42 -8.15,-17.99 1.22,-3.58 2.08,-7.92 2.42,-12.68 3.32,-3.79 5.41,-9.31 5.41,-15.45 0,-7.34 -2.99,-13.79 -7.49,-17.47 1.24,-3.6 2.1,-7.97 2.45,-12.78 3.32,-3.79 5.41,-9.31 5.41,-15.45 0,-7.7 -3.28,-14.41 -8.15,-17.99 1.22,-3.58 2.08,-7.92 2.42,-12.68 3.32,-3.8 5.41,-9.31 5.41,-15.45 0,-8.17 -3.7,-15.24 -9.07,-18.61l-3.29 -203.83 -2.42 -150.05 -2.42 150.05 -3.29 203.83c-5.37,3.37 -9.07,10.44 -9.07,18.61 0,6.14 2.09,11.66 5.41,15.45 0.34,4.76 1.2,9.11 2.42,12.68 -4.87,3.57 -8.15,10.29 -8.15,17.99 0,6.14 2.09,11.66 5.41,15.45 0.35,4.81 1.21,9.19 2.45,12.78 -4.5,3.68 -7.49,10.13 -7.49,17.47 0,6.14 2.09,11.66 5.41,15.45 0.34,4.77 1.19,9.11 2.42,12.68 -4.87,3.57 -8.15,10.29 -8.15,17.99 0,6.14 2.09,11.66 5.41,15.45 0.36,4.92 1.25,9.39 2.54,13.03 -5.17,3.46 -8.7,10.39 -8.7,18.37 0,6.14 2.09,11.66 5.41,15.45 0.35,4.77 1.2,9.11 2.42,12.68 -4.87,3.57 -8.15,10.29 -8.15,17.99 0,6.14 2.09,11.66 5.41,15.45 0.35,4.81 1.21,9.18 2.45,12.78 -4.5,3.68 -7.49,10.13 -7.49,17.47 0,6.14 2.09,11.66 5.41,15.45 0.34,4.77 1.19,9.11 2.42,12.69 -4.87,3.57 -8.15,10.29 -8.15,17.99 0,1.57 0.14,3.1 0.4,4.57l-7.01 0 -7.04 35.02 -1.66 8.27 -36.02 0 -1.65 3.7 -159.42 90.71 -227.01 129.17 56.9 95.54 -167.41 80 61.66 69.12 -194.2 65.79 64.32 67.26 630.7 -138.18 635.78 132.11 64.32 -61.19 -194.2 -65.79 61.66 -69.12 -167.41 -80 56.9 -95.54 -227.01 -129.17 -159.42 -90.71 -1.65 -3.7 -34.01 0z"/>
 </g>
</svg>
