<svg xmlns="http://www.w3.org/2000/svg" viewBox="0 0 1536 730" preserveAspectRatio="xMidYMid" width="1536" height="730" xmlns:xlink="http://www.w3.org/1999/xlink" style="shape-rendering:auto;display:block;background-position-x:0%;background-position-y:0%;background-size:auto;background-origin:padding-box;background-clip:border-box;background:scroll rgb(255, 255, 255) none  repeat;width:1536px;height:730px;;animation:none"><g><linearGradient y2="0" y1="0" x2="1" x1="0" id="lg-vwk8kpvs8f7"><stop offset="0" stop-color="#c8bc3d"></stop>

  
<stop offset="1" stop-color="#93ff00"></stop></linearGradient>
<path opacity="0.4" fill="url(#lg-vwk8kpvs8f7)" d="M 0 0 L 0 457.88 Q 153.6 465.12 307.2 431.24 T 614.4 343.38 T 921.6 360.85 T 1228.8 250.72 T 1536 270.72 L 1536 0 Z" style="fill:url('#lg-vwk8kpvs8f7');opacity:0.4;;animation:none"></path>
<path opacity="0.4" fill="url(#lg-vwk8kpvs8f7)" d="M 0 0 L 0 488.849 Q 153.6 483.467 307.2 446.12 T 614.4 413.379 T 921.6 287.7 T 1228.8 256.495 T 1536 253.005 L 1536 0 Z" style="fill:url('#lg-vwk8kpvs8f7');opacity:0.4;;animation:none"></path>
<path opacity="0.4" fill="url(#lg-vwk8kpvs8f7)" d="M 0 0 L 0 528.649 Q 153.6 496.904 307.2 453.424 T 614.4 439.789 T 921.6 382.463 T 1228.8 240.188 T 1536 221.51 L 1536 0 Z" style="fill:url('#lg-vwk8kpvs8f7');opacity:0.4;;animation:none"></path>
<path opacity="0.4" fill="url(#lg-vwk8kpvs8f7)" d="M 0 0 L 0 474.794 Q 153.6 500.178 307.2 477.891 T 614.4 324.195 T 921.6 318.61 T 1228.8 306.885 T 1536 217.584 L 1536 0 Z" style="fill:url('#lg-vwk8kpvs8f7');opacity:0.4;;animation:none"></path>
<path opacity="0.4" fill="url(#lg-vwk8kpvs8f7)" d="M 0 0 L 0 458.99 Q 153.6 434.506 307.2 405.783 T 614.4 376.756 T 921.6 360.42 T 1228.8 279.138 T 1536 248.205 L 1536 0 Z" style="fill:url('#lg-vwk8kpvs8f7');opacity:0.4;;animation:none"></path>
<g></g></g><!-- [ldio] generated by https://loading.io --></svg>